<?xml version="1.0" encoding="utf-8"?>
<!-- Generator: Adobe Illustrator 25.4.1, SVG Export Plug-In . SVG Version: 6.00 Build 0)  -->
<svg version="1.1" id="Layer_1" xmlns="http://www.w3.org/2000/svg" xmlns:xlink="http://www.w3.org/1999/xlink" x="0px" y="0px"
	 viewBox="0 0 906.9 450" style="enable-background:new 0 0 906.9 450;" xml:space="preserve">
<style type="text/css">
	.st0{fill:url(#SVGID_1_);}
	.st1{fill:url(#SVGID_00000005956771286908845340000001914427756756632970_);}
	.st2{fill:url(#SVGID_00000067918645340914099730000011614001599174514069_);}
</style>
<g>
	<g>
		
			<linearGradient id="SVGID_1_" gradientUnits="userSpaceOnUse" x1="452.8882" y1="223.9304" x2="452.8882" y2="660.783" gradientTransform="matrix(1 0 0 -1 0 667.4534)">
			<stop  offset="0" style="stop-color:#7F0C1D"/>
			<stop  offset="0.1609" style="stop-color:#9A1722"/>
			<stop  offset="0.3749" style="stop-color:#B72328"/>
			<stop  offset="0.588" style="stop-color:#CB2B2D"/>
			<stop  offset="0.7976" style="stop-color:#D8302F"/>
			<stop  offset="1" style="stop-color:#DC3230"/>
		</linearGradient>
		<path class="st0" d="M609.5,297.8c3.3,3.3,6.9,6.2,10.5,9c30.8,26,70.8,41.8,114.6,41.8c78.3,0,144.8-50.4,167.3-119.8
			c-1.1,54.7-22.4,109-64,150.6c-85.4,85.4-224.5,85.5-310,0.3L296.2,152.4c-3.3-3.3-6.9-6.2-10.5-9c-30.8-26-70.8-41.8-114.6-41.8
			C92.8,101.6,26.3,152,3.8,221.4c1.1-54.7,22.4-109,64.1-150.6c85.4-85.4,224.5-85.5,310-0.3L609.5,297.8z"/>
		
			<linearGradient id="SVGID_00000064336713639852779990000010983890278283604927_" gradientUnits="userSpaceOnUse" x1="678.0889" y1="342.0167" x2="678.0889" y2="662.4178" gradientTransform="matrix(1 0 0 -1 0 667.4534)">
			<stop  offset="0" style="stop-color:#7F0C1D"/>
			<stop  offset="0.1609" style="stop-color:#9A1722"/>
			<stop  offset="0.3749" style="stop-color:#B72328"/>
			<stop  offset="0.588" style="stop-color:#CB2B2D"/>
			<stop  offset="0.7976" style="stop-color:#D8302F"/>
			<stop  offset="1" style="stop-color:#DC3230"/>
		</linearGradient>
		<path style="fill:url(#SVGID_00000064336713639852779990000010983890278283604927_);" d="M870.2,114.8
			c-11.8-24.1-29.5-45.9-50.6-63.5C735.6-18.3,603.8-6.8,527.9,68.8l-58,58.2l82.4,80.8l57.2-57c40.5-40.3,106.2-40.2,146.6,0.1
			c40.5,40.5,40.5,106.3,0,146.7c-12.6,12.6-27.7,21.3-43.8,26c7.3,1,14.7,1.8,22.3,1.8c61.1,0,118.7-37.1,141.8-94.1
			C892.4,191.9,887.8,150.8,870.2,114.8z"/>
		
			<linearGradient id="SVGID_00000145050539407780136550000014265166673648083104_" gradientUnits="userSpaceOnUse" x1="18.7432" y1="382.5819" x2="436.8431" y2="382.5819" gradientTransform="matrix(1 0 0 -1 0 667.4534)">
			<stop  offset="0" style="stop-color:#7F0C1D"/>
			<stop  offset="0.1609" style="stop-color:#9A1722"/>
			<stop  offset="0.3749" style="stop-color:#B72328"/>
			<stop  offset="0.588" style="stop-color:#CB2B2D"/>
			<stop  offset="0.7976" style="stop-color:#D8302F"/>
			<stop  offset="1" style="stop-color:#DC3230"/>
		</linearGradient>
		<path style="fill:url(#SVGID_00000145050539407780136550000014265166673648083104_);" d="M354,242.3l-57.7,57.1
			c-40.5,40.3-106.2,40.2-146.6-0.1c-40.4-40.5-40.4-106.3,0-146.7c12.6-12.6,27.7-21.3,43.8-26.1c-7.3-1.1-14.7-1.8-22.3-1.8
			c-84,0-152.4,66.6-152.4,148.5c0,57.4,39.9,108.3,86.7,138.4c84.9,54.6,201.3,40.6,272.5-30.2l59-58.1L354,242.3z"/>
	</g>
</g>
</svg>
