<?xml version="1.0" encoding="utf-8"?>
<!-- Generator: Adobe Illustrator 25.4.1, SVG Export Plug-In . SVG Version: 6.00 Build 0)  -->
<svg version="1.1" id="Layer_1" xmlns="http://www.w3.org/2000/svg" xmlns:xlink="http://www.w3.org/1999/xlink" x="0px" y="0px"
	 viewBox="0 0 923 678" style="enable-background:new 0 0 923 678;" xml:space="preserve">
<style type="text/css">
	.st0{fill:url(#SVGID_1_);}
	.st1{fill:url(#SVGID_00000020394499744750109010000006078381060023422125_);}
	.st2{fill:url(#SVGID_00000092429363767379271720000012137726634260659647_);}
	.st3{fill:#0F0F0F;}
</style>
<g>
	<g>
		
			<linearGradient id="SVGID_1_" gradientUnits="userSpaceOnUse" x1="463.565" y1="228.2037" x2="463.565" y2="665.0563" gradientTransform="matrix(1 0 0 -1 0 676)">
			<stop  offset="0" style="stop-color:#7F0C1D"/>
			<stop  offset="0.1609" style="stop-color:#9A1722"/>
			<stop  offset="0.3749" style="stop-color:#B72328"/>
			<stop  offset="0.588" style="stop-color:#CB2B2D"/>
			<stop  offset="0.7976" style="stop-color:#D8302F"/>
			<stop  offset="1" style="stop-color:#DC3230"/>
		</linearGradient>
		<path class="st0" d="M620.2,302c3.3,3.3,6.9,6.2,10.5,9c30.8,26,70.8,41.8,114.6,41.8c78.3,0,144.8-50.4,167.3-119.8
			c-1.1,54.7-22.4,109-64,150.6c-85.4,85.4-224.5,85.5-310,0.3L306.9,156.7c-3.3-3.3-6.9-6.2-10.5-9c-30.8-26-70.8-41.8-114.6-41.8
			c-78.3,0-144.8,50.4-167.3,119.8c1.1-54.7,22.4-109,64.1-150.6c85.4-85.4,224.5-85.5,310-0.3L620.2,302z"/>
		
			<linearGradient id="SVGID_00000011007857009755276030000004011960730678862237_" gradientUnits="userSpaceOnUse" x1="688.7657" y1="346.29" x2="688.7657" y2="666.6912" gradientTransform="matrix(1 0 0 -1 0 676)">
			<stop  offset="0" style="stop-color:#7F0C1D"/>
			<stop  offset="0.1609" style="stop-color:#9A1722"/>
			<stop  offset="0.3749" style="stop-color:#B72328"/>
			<stop  offset="0.588" style="stop-color:#CB2B2D"/>
			<stop  offset="0.7976" style="stop-color:#D8302F"/>
			<stop  offset="1" style="stop-color:#DC3230"/>
		</linearGradient>
		<path style="fill:url(#SVGID_00000011007857009755276030000004011960730678862237_);" d="M880.8,119
			c-11.8-24.1-29.5-45.9-50.6-63.5C746.3-14.1,614.5-2.5,538.6,73.1l-58,58.2l82.4,80.8l57.2-57c40.5-40.3,106.2-40.2,146.6,0.1
			c40.5,40.5,40.5,106.3,0,146.7c-12.6,12.6-27.7,21.3-43.8,26c7.3,1,14.7,1.8,22.3,1.8c61.1,0,118.7-37.1,141.8-94.1
			C903.1,196.1,898.5,155.1,880.8,119z"/>
		
			<linearGradient id="SVGID_00000152237340483782916150000002277223143049436863_" gradientUnits="userSpaceOnUse" x1="29.42" y1="386.8552" x2="447.52" y2="386.8552" gradientTransform="matrix(1 0 0 -1 0 676)">
			<stop  offset="0" style="stop-color:#7F0C1D"/>
			<stop  offset="0.1609" style="stop-color:#9A1722"/>
			<stop  offset="0.3749" style="stop-color:#B72328"/>
			<stop  offset="0.588" style="stop-color:#CB2B2D"/>
			<stop  offset="0.7976" style="stop-color:#D8302F"/>
			<stop  offset="1" style="stop-color:#DC3230"/>
		</linearGradient>
		<path style="fill:url(#SVGID_00000152237340483782916150000002277223143049436863_);" d="M364.6,246.6l-57.7,57.1
			c-40.5,40.3-106.2,40.2-146.6-0.1c-40.4-40.5-40.4-106.3,0-146.7c12.6-12.6,27.7-21.3,43.8-26.1c-7.3-1.1-14.7-1.8-22.3-1.8
			c-84,0-152.4,66.6-152.4,148.5c0,57.4,39.9,108.3,86.7,138.4c84.9,54.6,201.3,40.6,272.5-30.2l59-58.1L364.6,246.6z"/>
	</g>
</g>
<g>
	<path class="st3" d="M119.4,635.8v24.4H17.5V528.6H117V553H47.8v28.6h61.1v23.7H47.8v30.5L119.4,635.8L119.4,635.8z"/>
	<path class="st3" d="M264.4,528.6v131.6h-25l-65.6-79.9v79.9h-30.1V528.6h25.2l65.4,79.9v-79.9H264.4z"/>
	<path class="st3" d="M295.6,528.6h59.8c43,0,72.6,25.9,72.6,65.8s-29.5,65.8-72.6,65.8h-59.8V528.6z M353.9,635.2
		c26.1,0,43.2-15.6,43.2-40.8c0-25.2-17.1-40.8-43.2-40.8H326v81.6L353.9,635.2L353.9,635.2z"/>
	<path class="st3" d="M450.9,528.6h30.5v106.8h66v24.8h-96.5V528.6z"/>
	<path class="st3" d="M666.3,635.8v24.4H564.4V528.6h99.5V553h-69.2v28.6h61.1v23.7h-61.1v30.5L666.3,635.8L666.3,635.8z"/>
	<path class="st3" d="M680.2,647.2l10.3-22.9c11.1,8.1,27.6,13.7,43.4,13.7c18,0,25.4-6,25.4-14.1c0-24.6-76.5-7.7-76.5-56.6
		c0-22.4,18-41,55.5-41c16.5,0,33.5,4,45.7,11.7l-9.4,23.1c-12.2-7-24.8-10.3-36.5-10.3c-18,0-25,6.8-25,15
		c0,24.2,76.5,7.5,76.5,55.8c0,22-18.2,40.8-55.8,40.8C712.9,662.5,691.9,656.2,680.2,647.2z"/>
	<path class="st3" d="M800.2,647.2l10.3-22.9c11.1,8.1,27.6,13.7,43.4,13.7c18,0,25.4-6,25.4-14.1c0-24.6-76.5-7.7-76.5-56.6
		c0-22.4,18-41,55.5-41c16.5,0,33.5,4,45.7,11.7l-9.4,23.1c-12.2-7-24.8-10.3-36.5-10.3c-18,0-25,6.8-25,15
		c0,24.2,76.5,7.5,76.5,55.8c0,22-18.2,40.8-55.8,40.8C832.9,662.5,811.8,656.2,800.2,647.2z"/>
</g>
</svg>
