<?xml version="1.0" encoding="utf-8"?>
<!-- Generator: Adobe Illustrator 25.4.1, SVG Export Plug-In . SVG Version: 6.00 Build 0)  -->
<svg version="1.1" id="Layer_1" xmlns="http://www.w3.org/2000/svg" xmlns:xlink="http://www.w3.org/1999/xlink" x="0px" y="0px"
	 viewBox="0 0 1116.94 828.65" style="enable-background:new 0 0 1116.94 828.65;" xml:space="preserve">
<style type="text/css">
	.st0{fill:url(#SVGID_1_);}
	.st1{fill:url(#SVGID_00000067211728885143115850000014816241661500374408_);}
	.st2{fill:url(#SVGID_00000096031967871426755960000013835543177754211257_);}
	.st3{fill:#0F0F0F;}
</style>
<g>
	<g>
		<linearGradient id="SVGID_1_" gradientUnits="userSpaceOnUse" x1="547.5627" y1="523.7991" x2="547.5627" y2="86.9413">
			<stop  offset="0" style="stop-color:#7F0C1D"/>
			<stop  offset="0.1609" style="stop-color:#9A1722"/>
			<stop  offset="0.3749" style="stop-color:#B72328"/>
			<stop  offset="0.588" style="stop-color:#CB2B2D"/>
			<stop  offset="0.7976" style="stop-color:#D8302F"/>
			<stop  offset="1" style="stop-color:#DC3230"/>
		</linearGradient>
		<path class="st0" d="M704.21,378.03c3.32,3.31,6.86,6.24,10.5,9.01c30.78,26.02,70.83,41.81,114.62,41.81
			c78.31,0,144.8-50.42,167.32-119.79c-1.12,54.66-22.43,108.99-64.05,150.61c-85.4,85.39-224.47,85.52-310.01,0.28L390.92,232.71
			c-3.32-3.31-6.86-6.24-10.5-9.01c-30.78-26.02-70.83-41.81-114.62-41.81c-78.32,0-144.8,50.42-167.32,119.79
			c1.12-54.66,22.43-108.99,64.05-150.61c85.4-85.39,224.47-85.52,310.01-0.28L704.21,378.03z"/>
		
			<linearGradient id="SVGID_00000140729941129886939540000009279976067940627342_" gradientUnits="userSpaceOnUse" x1="772.7612" y1="405.7194" x2="772.7612" y2="85.312">
			<stop  offset="0" style="stop-color:#7F0C1D"/>
			<stop  offset="0.1609" style="stop-color:#9A1722"/>
			<stop  offset="0.3749" style="stop-color:#B72328"/>
			<stop  offset="0.588" style="stop-color:#CB2B2D"/>
			<stop  offset="0.7976" style="stop-color:#D8302F"/>
			<stop  offset="1" style="stop-color:#DC3230"/>
		</linearGradient>
		<path style="fill:url(#SVGID_00000140729941129886939540000009279976067940627342_);" d="M964.83,195.04
			c-11.81-24.11-29.46-45.95-50.62-63.51c-83.91-69.6-215.72-58.06-291.62,17.57l-57.98,58.17l82.4,80.79l57.2-57.04
			c40.46-40.31,106.22-40.25,146.61,0.13c40.45,40.46,40.45,106.28,0,146.74c-12.63,12.63-27.73,21.31-43.77,26.05
			c7.29,1.05,14.69,1.77,22.28,1.77c61.06,0,118.74-37.15,141.8-94.09C987.12,272.14,982.47,231.05,964.83,195.04z"/>
		
			<linearGradient id="SVGID_00000169538085245450592830000013363148500779778969_" gradientUnits="userSpaceOnUse" x1="113.4183" y1="365.1344" x2="531.5159" y2="365.1344">
			<stop  offset="0" style="stop-color:#7F0C1D"/>
			<stop  offset="0.1609" style="stop-color:#9A1722"/>
			<stop  offset="0.3749" style="stop-color:#B72328"/>
			<stop  offset="0.588" style="stop-color:#CB2B2D"/>
			<stop  offset="0.7976" style="stop-color:#D8302F"/>
			<stop  offset="1" style="stop-color:#DC3230"/>
		</linearGradient>
		<path style="fill:url(#SVGID_00000169538085245450592830000013363148500779778969_);" d="M448.64,322.6l-57.72,57.12
			c-40.46,40.31-106.22,40.25-146.61-0.13c-40.45-40.46-40.45-106.28,0-146.74c12.63-12.63,27.74-21.31,43.78-26.05
			c-7.29-1.05-14.69-1.77-22.28-1.77c-84.03,0-152.39,66.6-152.39,148.47c0,57.43,39.87,108.33,86.68,138.39
			c84.94,54.56,201.31,40.64,272.45-30.24l58.97-58.09L448.64,322.6z"/>
	</g>
</g>
<g>
	<path class="st3" d="M203.43,685.76v24.44h-101.9V578.6h99.45v24.44h-69.19v28.58h61.1v23.69h-61.1v30.46H203.43z"/>
	<path class="st3" d="M348.38,578.6v131.6h-25l-65.61-79.9v79.9h-30.08V578.6h25.19l65.42,79.9v-79.9H348.38z"/>
	<path class="st3" d="M379.59,578.6h59.79c43.05,0,72.57,25.94,72.57,65.8c0,39.86-29.52,65.8-72.57,65.8h-59.79V578.6z
		 M437.87,685.19c26.13,0,43.24-15.6,43.24-40.8c0-25.19-17.11-40.8-43.24-40.8h-27.83v81.59H437.87z"/>
	<path class="st3" d="M534.87,578.6h30.46v106.79h65.99v24.82h-96.45V578.6z"/>
	<path class="st3" d="M750.32,685.76v24.44h-101.9V578.6h99.45v24.44h-69.19v28.58h61.1v23.69h-61.1v30.46H750.32z"/>
	<path class="st3" d="M764.23,697.23l10.34-22.94c11.09,8.08,27.64,13.72,43.43,13.72c18.05,0,25.38-6.02,25.38-14.1
		c0-24.63-76.52-7.71-76.52-56.59c0-22.37,18.05-40.98,55.46-40.98c16.54,0,33.46,3.95,45.68,11.66l-9.4,23.12
		c-12.22-6.96-24.82-10.34-36.47-10.34c-18.05,0-25,6.77-25,15.04c0,24.25,76.52,7.52,76.52,55.84c0,22-18.24,40.8-55.84,40.8
		C796.94,712.46,775.88,706.25,764.23,697.23z"/>
	<path class="st3" d="M884.17,697.23l10.34-22.94c11.09,8.08,27.64,13.72,43.43,13.72c18.05,0,25.38-6.02,25.38-14.1
		c0-24.63-76.52-7.71-76.52-56.59c0-22.37,18.05-40.98,55.46-40.98c16.54,0,33.46,3.95,45.68,11.66l-9.4,23.12
		c-12.22-6.96-24.82-10.34-36.47-10.34c-18.05,0-25,6.77-25,15.04c0,24.25,76.52,7.52,76.52,55.84c0,22-18.24,40.8-55.84,40.8
		C916.88,712.46,895.83,706.25,884.17,697.23z"/>
</g>
</svg>
