<?xml version="1.0" encoding="utf-8"?>
<!-- Generator: Adobe Illustrator 25.4.1, SVG Export Plug-In . SVG Version: 6.00 Build 0)  -->
<svg version="1.1" id="Layer_1" xmlns="http://www.w3.org/2000/svg" xmlns:xlink="http://www.w3.org/1999/xlink" x="0px" y="0px"
	 viewBox="0 0 1280 640" style="enable-background:new 0 0 1280 640;" xml:space="preserve">
<style type="text/css">
	.st0{fill:url(#SVGID_1_);}
	.st1{fill:url(#SVGID_00000085947465777092147990000008777839806183036841_);}
	.st2{fill:url(#SVGID_00000150822619442404733700000011857439595149808824_);}
	.st3{fill:#0F0F0F;}
</style>
<g>
	<g>
		
			<linearGradient id="SVGID_1_" gradientUnits="userSpaceOnUse" x1="639.8306" y1="224.9104" x2="639.8306" y2="579.9898" gradientTransform="matrix(1 0 0 -1 0 640.1102)">
			<stop  offset="0" style="stop-color:#7F0C1D"/>
			<stop  offset="0.1609" style="stop-color:#9A1722"/>
			<stop  offset="0.3749" style="stop-color:#B72328"/>
			<stop  offset="0.588" style="stop-color:#CB2B2D"/>
			<stop  offset="0.7976" style="stop-color:#D8302F"/>
			<stop  offset="1" style="stop-color:#DC3230"/>
		</linearGradient>
		<path class="st0" d="M767.2,296.7c2.7,2.7,5.6,5.1,8.5,7.3c25,21.1,57.6,34,93.2,34c63.7,0,117.7-41,136-97.4
			c-0.9,44.4-18.2,88.6-52.1,122.4c-69.4,69.4-182.5,69.5-252,0.2L512.5,178.6c-2.7-2.7-5.6-5.1-8.5-7.3c-25-21.1-57.6-34-93.2-34
			c-63.7,0-117.7,41-136,97.4c0.9-44.4,18.2-88.6,52.1-122.4c69.4-69.4,182.5-69.5,252-0.2L767.2,296.7z"/>
		
			<linearGradient id="SVGID_00000018952058676722941430000010192315916249539203_" gradientUnits="userSpaceOnUse" x1="822.8766" y1="320.8925" x2="822.8766" y2="581.3186" gradientTransform="matrix(1 0 0 -1 0 640.1102)">
			<stop  offset="0" style="stop-color:#7F0C1D"/>
			<stop  offset="0.1609" style="stop-color:#9A1722"/>
			<stop  offset="0.3749" style="stop-color:#B72328"/>
			<stop  offset="0.588" style="stop-color:#CB2B2D"/>
			<stop  offset="0.7976" style="stop-color:#D8302F"/>
			<stop  offset="1" style="stop-color:#DC3230"/>
		</linearGradient>
		<path style="fill:url(#SVGID_00000018952058676722941430000010192315916249539203_);" d="M979,148c-9.6-19.6-23.9-37.3-41.1-51.6
			c-68.2-56.6-175.3-47.2-237,14.3l-47.1,47.3l67,65.7l46.5-46.4c32.9-32.8,86.3-32.7,119.2,0.1c32.9,32.9,32.9,86.4,0,119.3
			c-10.3,10.3-22.5,17.3-35.6,21.2c5.9,0.9,11.9,1.4,18.1,1.4c49.6,0,96.5-30.2,115.3-76.5C997.1,210.7,993.3,177.3,979,148z"/>
		
			<linearGradient id="SVGID_00000103243225372275010430000013930622977322936207_" gradientUnits="userSpaceOnUse" x1="286.952" y1="353.8643" x2="626.7891" y2="353.8643" gradientTransform="matrix(1 0 0 -1 0 640.1102)">
			<stop  offset="0" style="stop-color:#7F0C1D"/>
			<stop  offset="0.1609" style="stop-color:#9A1722"/>
			<stop  offset="0.3749" style="stop-color:#B72328"/>
			<stop  offset="0.588" style="stop-color:#CB2B2D"/>
			<stop  offset="0.7976" style="stop-color:#D8302F"/>
			<stop  offset="1" style="stop-color:#DC3230"/>
		</linearGradient>
		<path style="fill:url(#SVGID_00000103243225372275010430000013930622977322936207_);" d="M559.4,251.7l-46.9,46.4
			c-32.9,32.8-86.3,32.7-119.2-0.1c-32.9-32.9-32.9-86.4,0-119.3c10.3-10.3,22.5-17.3,35.6-21.2c-5.9-0.9-11.9-1.4-18.1-1.4
			c-68.3,0-123.9,54.1-123.9,120.7c0,46.7,32.4,88.1,70.5,112.5c69,44.3,163.6,33,221.5-24.6l47.9-47.2L559.4,251.7z"/>
	</g>
</g>
<g>
	<path class="st3" d="M360.1,546.8v19.9h-82.8v-107h80.8v19.9h-56.2v23.2h49.7v19.3h-49.7v24.8L360.1,546.8L360.1,546.8z"/>
	<path class="st3" d="M477.9,459.7v107h-20.3l-53.3-64.9v64.9h-24.4v-107h20.5l53.2,64.9v-64.9H477.9z"/>
	<path class="st3" d="M503.3,459.7h48.6c35,0,59,21.1,59,53.5s-24,53.5-59,53.5h-48.6V459.7z M550.7,546.4
		c21.2,0,35.1-12.7,35.1-33.2c0-20.5-13.9-33.2-35.1-33.2H528v66.3L550.7,546.4L550.7,546.4z"/>
	<path class="st3" d="M629.5,459.7h24.8v86.8h53.6v20.2h-78.4V459.7z"/>
	<path class="st3" d="M804.6,546.8v19.9h-82.8v-107h80.8v19.9h-56.2v23.2h49.7v19.3h-49.7v24.8L804.6,546.8L804.6,546.8z"/>
	<path class="st3" d="M815.9,556.2l8.4-18.6c9,6.6,22.5,11.2,35.3,11.2c14.7,0,20.6-4.9,20.6-11.5c0-20-62.2-6.3-62.2-46
		c0-18.2,14.7-33.3,45.1-33.3c13.4,0,27.2,3.2,37.1,9.5l-7.6,18.8c-9.9-5.7-20.2-8.4-29.6-8.4c-14.7,0-20.3,5.5-20.3,12.2
		c0,19.7,62.2,6.1,62.2,45.4c0,17.9-14.8,33.2-45.4,33.2C842.5,568.5,825.4,563.5,815.9,556.2z"/>
	<path class="st3" d="M913.4,556.2l8.4-18.6c9,6.6,22.5,11.2,35.3,11.2c14.7,0,20.6-4.9,20.6-11.5c0-20-62.2-6.3-62.2-46
		c0-18.2,14.7-33.3,45.1-33.3c13.4,0,27.2,3.2,37.1,9.5l-7.6,18.8c-9.9-5.7-20.2-8.4-29.6-8.4c-14.7,0-20.3,5.5-20.3,12.2
		c0,19.7,62.2,6.1,62.2,45.4c0,17.9-14.8,33.2-45.4,33.2C940,568.5,922.9,563.5,913.4,556.2z"/>
</g>
</svg>
